<svg xmlns="http://www.w3.org/2000/svg" width="50" height="50"><path d="M18 5a5 5 0 0 0-5 5v1h19.5a6.5 6.5 0 0 1 6.5 6.5v10a3.5 3.5 0 0 1-3.5 3.5h-13a3.5 3.5 0 0 1-3.5-3.5V21h-4a2 2 0 0 0-2 2v9a5 5 0 0 0 5 5h22a5 5 0 0 0 5-5V10a5 5 0 0 0-5-5H18zm-8 8a5 5 0 0 0-5 5v22a5 5 0 0 0 5 5h22a5 5 0 0 0 5-5v-1H17.5a6.5 6.5 0 0 1-6.5-6.5v-10a3.5 3.5 0 0 1 3.5-3.5h13a3.5 3.5 0 0 1 3.5 3.5V29h4a2 2 0 0 0 2-2v-9a5 5 0 0 0-5-5H10z"/>
    <style>
        path { fill: #000; }
        @media (prefers-color-scheme: dark) {
            path { fill: #FFF; }
        }
    </style>
</svg>